<?xml version="1.0" encoding="UTF-8"?>
<svg xmlns="http://www.w3.org/2000/svg" xmlns:xlink="http://www.w3.org/1999/xlink" width="30px" height="30px" viewBox="0 0 30 30" version="1.1">
<g id="surface1">
<path style=" stroke:none;fill-rule:nonzero;fill-opacity:1;" d="M 10.3125 21 L 15 16.3125 L 19.6875 21 L 21 19.6875 L 16.3125 15 L 21 10.3125 L 19.6875 9 L 15 13.6875 L 10.3125 9 L 9 10.3125 L 13.6875 15 L 9 19.6875 Z M 15 27.5 C 13.292969 27.5 11.675781 27.171875 10.15625 26.515625 C 8.636719 25.859375 7.308594 24.964844 6.171875 23.828125 C 5.035156 22.691406 4.140625 21.363281 3.484375 19.84375 C 2.828125 18.324219 2.5 16.707031 2.5 15 C 2.5 13.269531 2.828125 11.644531 3.484375 10.125 C 4.140625 8.605469 5.035156 7.28125 6.171875 6.15625 C 7.308594 5.03125 8.636719 4.140625 10.15625 3.484375 C 11.675781 2.828125 13.292969 2.5 15 2.5 C 16.730469 2.5 18.355469 2.828125 19.875 3.484375 C 21.394531 4.140625 22.71875 5.03125 23.84375 6.15625 C 24.96875 7.28125 25.859375 8.605469 26.515625 10.125 C 27.171875 11.644531 27.5 13.269531 27.5 15 C 27.5 16.707031 27.171875 18.324219 26.515625 19.84375 C 25.859375 21.363281 24.96875 22.691406 23.84375 23.828125 C 22.71875 24.964844 21.394531 25.859375 19.875 26.515625 C 18.355469 27.171875 16.730469 27.5 15 27.5 Z M 15 25.625 C 17.957031 25.625 20.46875 24.589844 22.53125 22.515625 C 24.59375 20.441406 25.625 17.9375 25.625 15 C 25.625 12.042969 24.59375 9.53125 22.53125 7.46875 C 20.46875 5.40625 17.957031 4.375 15 4.375 C 12.0625 4.375 9.558594 5.40625 7.484375 7.46875 C 5.410156 9.53125 4.375 12.042969 4.375 15 C 4.375 17.9375 5.410156 20.441406 7.484375 22.515625 C 9.558594 24.589844 12.0625 25.625 15 25.625 Z M 15 15 Z M 15 15 "/>
</g>
</svg>
