<?xml version="1.0" encoding="UTF-8"?>
<svg xmlns="http://www.w3.org/2000/svg" xmlns:xlink="http://www.w3.org/1999/xlink" width="30px" height="30px" viewBox="0 0 30 30" version="1.1">
<g id="surface1">
<path style=" stroke:none;fill-rule:nonzero;fill:rgb(0%,0%,0%);fill-opacity:1;" d="M 15 25 C 12.230469 25 9.871094 24.027344 7.921875 22.078125 C 5.972656 20.128906 5 17.769531 5 15 C 5 12.230469 5.972656 9.871094 7.921875 7.921875 C 9.871094 5.972656 12.230469 5 15 5 C 16.769531 5 18.324219 5.359375 19.65625 6.078125 C 20.988281 6.796875 22.144531 7.78125 23.125 9.03125 L 23.125 5 L 25 5 L 25 12.9375 L 17.0625 12.9375 L 17.0625 11.0625 L 22.3125 11.0625 C 21.519531 9.8125 20.511719 8.800781 19.28125 8.03125 C 18.050781 7.261719 16.625 6.875 15 6.875 C 12.730469 6.875 10.808594 7.660156 9.234375 9.234375 C 7.660156 10.808594 6.875 12.730469 6.875 15 C 6.875 17.269531 7.660156 19.191406 9.234375 20.765625 C 10.808594 22.339844 12.730469 23.125 15 23.125 C 16.730469 23.125 18.3125 22.628906 19.75 21.640625 C 21.1875 20.652344 22.1875 19.34375 22.75 17.71875 L 24.6875 17.71875 C 24.082031 19.90625 22.886719 21.667969 21.09375 23 C 19.300781 24.332031 17.269531 25 15 25 Z M 15 25 "/>
</g>
</svg>
